<svg width="1024" height="1024" viewBox="0 0 1024 1024" fill="none" xmlns="http://www.w3.org/2000/svg">
<rect width="1024" height="1024" fill="white"/>
<rect x="205.864" y="383.912" width="611.272" height="486.388" rx="111.738" stroke="#1DD85F" stroke-width="65.7282"/>
<rect x="573.942" y="281.547" width="249.767" height="72.301" rx="36.1505" transform="rotate(-40 573.942 281.547)" fill="#1DD85F"/>
<rect width="249.767" height="72.301" rx="36.1505" transform="matrix(-0.766044 -0.642788 -0.642788 0.766044 456.815 281.547)" fill="#1DD85F"/>
<path d="M457.052 570.885C453.214 581.429 447.337 591.114 439.756 599.387C432.176 607.66 423.04 614.359 412.87 619.101C402.7 623.844 391.696 626.536 380.486 627.026C369.275 627.515 358.078 625.792 347.534 621.954C336.99 618.116 327.305 612.239 319.032 604.658C310.759 597.078 304.06 587.942 299.318 577.772C294.575 567.602 291.883 556.598 291.393 545.388C290.904 534.177 292.627 522.98 296.465 512.436L376.759 541.661L457.052 570.885Z" fill="#1DD85F"/>
<path d="M563.73 568.664C567.568 579.208 573.445 588.894 581.026 597.167C588.607 605.44 597.743 612.138 607.912 616.881C618.082 621.623 629.086 624.315 640.297 624.805C651.507 625.294 662.704 623.571 673.248 619.733C683.792 615.895 693.478 610.018 701.751 602.437C710.024 594.857 716.722 585.721 721.465 575.551C726.207 565.381 728.9 554.377 729.389 543.167C729.878 531.956 728.155 520.759 724.317 510.215L644.024 539.44L563.73 568.664Z" fill="#1DD85F"/>
</svg>
